# xmcd
#
# Track frame offsets:
#	150
#	16550
#	30018
#	42516
#	52183
#	64973
#	75416
#	88791
#	99169
#	108990
#	120939
#	133743
#	143420
#	152592
#	164748
#	177086
#	192628
#	211604
#
# Disc length: 2964 seconds
#
# Revision: 1
# Processed by: cddbd v1.5.2PL0 Copyright (c) Steve Scherf et al.
# Submitted via: audiograbber 1.83.01
#
DISCID=de0b9212
DTITLE=Various Artist - Country Hits - The Album CD2
DYEAR=2015
DGENRE=Country
TTITLE0=Billie Jo Spears - Blanket On The Ground
TTITLE1=Patti Page - Tennessee Waltz
TTITLE2=Elvis Presley - Love Me Tender
TTITLE3=Dolly Parton - Release Me
TTITLE4=Lee Hazlewood - These Boots Are Made For Walking
TTITLE5=Loretta Lynn - You're Looking At Country
TTITLE6=Don Williams - Where Do I Go From Here
TTITLE7=Anne Murray - Some Birds
TTITLE8=Johnny Cash - Why My Lord
TTITLE9=Billie Jo Spears - Ease The Want In Me
TTITLE10=Charley Pride - Help Me Make It Through The Night
TTITLE11=Jim Reeves - I'm Getting Better
TTITLE12=Dave Dudley - Keep On Truckin'
TTITLE13=Tammy Wynette - Crying In The Rain
TTITLE14=Billie Jo Spears - Mystery Blues
TTITLE15=Kenny Rogers - For The Good Times
TTITLE16=Marty Robbins - El Paso City
TTITLE17=Roger Miller - King Of The Road
EXTD=
EXTT0=
EXTT1=
EXTT2=
EXTT3=
EXTT4=
EXTT5=
EXTT6=
EXTT7=
EXTT8=
EXTT9=
EXTT10=
EXTT11=
EXTT12=
EXTT13=
EXTT14=
EXTT15=
EXTT16=
EXTT17=
PLAYORDER=
